<svg width="18" height="18" viewBox="0 0 18 18" fill="none" xmlns="http://www.w3.org/2000/svg">
<g clip-path="url(#clip0_413_2493)">
<path d="M0.909935 5.69113C0.909935 8.13776 0.909935 10.5844 0.909935 13.0306C0.917925 13.044 0.929912 13.057 0.933019 13.0712C1.15365 14.136 1.90874 14.7424 3.01942 14.7424C7.1869 14.7428 11.3548 14.7433 15.5223 14.742C16.7488 14.7415 17.606 13.9068 17.6074 12.7157C17.6082 11.8689 17.6078 11.0216 17.6074 10.1748C17.6074 8.76142 17.6131 7.34802 17.6051 5.93463C17.5994 4.88582 16.8034 4.05846 15.734 4.00223C15.1707 3.97239 14.6043 3.98666 14.0392 3.99099C13.9082 3.99185 13.8345 3.94947 13.7653 3.84394C13.502 3.44302 13.2272 3.04901 12.9591 2.65112C12.5405 2.03048 11.9443 1.7273 11.1892 1.72471C9.90144 1.71995 8.61364 1.71952 7.32584 1.72471C6.57074 1.72774 5.97501 2.03135 5.5564 2.65198C5.28206 3.05896 5.00283 3.46205 4.7316 3.87075C4.67478 3.95639 4.61485 3.99099 4.50876 3.99012C3.99825 3.98493 3.48731 3.98537 2.97636 3.98839C2.17865 3.99272 1.55539 4.31147 1.16385 4.99654C1.04355 5.20847 0.992947 5.45845 0.909935 5.69113ZM9.26575 13.1504C6.76429 13.1301 4.78487 11.2085 4.75912 8.80294C4.73338 6.3935 6.7634 4.40489 9.25421 4.39494C11.7215 4.38543 13.7342 6.32647 13.7591 8.7398C13.7839 11.1488 11.7614 13.134 9.26575 13.1504ZM3.55656 6.74123C3.3963 6.73172 3.22628 6.73691 3.06204 6.70879C2.79036 6.66208 2.60436 6.4134 2.61546 6.14395C2.62744 5.85851 2.84319 5.60852 3.1233 5.59339C3.41495 5.57738 3.70926 5.57652 4.00092 5.59382C4.29079 5.61112 4.5052 5.84813 4.52252 6.13184C4.53894 6.40691 4.34007 6.66208 4.05019 6.71096C3.89127 6.73691 3.72658 6.73172 3.55656 6.74123Z" fill="#5B5D6C"/>
<path d="M9.27317 11.2011C10.6688 11.1821 11.7853 10.0887 11.7649 8.76097C11.744 7.41721 10.6 6.31867 9.24431 6.34116C7.84731 6.36408 6.73131 7.45829 6.75262 8.78346C6.77437 10.1298 7.91079 11.2197 9.27317 11.2011Z" fill="#5B5D6C"/>
</g>
<defs>
<clipPath id="clip0_413_2493">
<rect width="17.2364" height="17.2364" fill="white" transform="translate(0.557617 0.557129)"/>
</clipPath>
</defs>
</svg>
